<svg xmlns="http://www.w3.org/2000/svg" width="38" height="30"><g fill="none" fill-rule="evenodd"><path fill="#006095" d="M21.722 28.529c7.36.036 14.077-5.958 14.077-13.248C35.8 7.308 29.081 1.798 21.722 1.8h-6.334C7.94 1.798 1.81 7.31 1.81 15.28c0 7.293 6.13 13.285 13.578 13.249h6.334"/><path fill="#FFF" d="M15.418 2.905C8.612 2.907 3.098 8.383 3.096 15.14c.001 6.757 5.516 12.232 12.322 12.234 6.807-.002 12.323-5.477 12.324-12.234-.001-6.758-5.517-12.234-12.324-12.236M7.608 15.14c.006-3.303 2.083-6.118 5.013-7.238v14.474c-2.93-1.119-5.007-3.933-5.014-7.236m10.606 7.239V7.903c2.931 1.116 5.012 3.933 5.017 7.238-.005 3.305-2.086 6.12-5.017 7.239"/></g></svg>