<svg xmlns="http://www.w3.org/2000/svg" xmlns:xlink="http://www.w3.org/1999/xlink" width="105" height="50"><defs><path id="a" d="M0 .195h31.983v31.983H0z"/><path id="c" d="M.227.195h25.036v12.401H.227z"/></defs><g fill="none" fill-rule="evenodd"><path fill="#5F6267" d="M49.764 11.803v9.48h5.84c1.39 0 2.54-.468 3.45-1.403.935-.935 1.403-2.048 1.403-3.337 0-1.264-.468-2.363-1.403-3.299-.91-.96-2.06-1.44-3.45-1.44h-5.84zm0 12.816v10.996h-3.488V8.467h9.251c2.351 0 4.348.783 5.991 2.35 1.669 1.568 2.503 3.476 2.503 5.726 0 2.3-.834 4.222-2.503 5.763-1.618 1.542-3.615 2.313-5.99 2.313h-5.764zm18.276 5.309c0 .91.385 1.668 1.157 2.274.77.607 1.674.91 2.71.91 1.466 0 2.775-.543 3.925-1.63 1.15-1.087 1.725-2.363 1.725-3.83-1.087-.859-2.604-1.289-4.55-1.289-1.416 0-2.597.342-3.545 1.024-.948.683-1.422 1.53-1.422 2.54m4.512-13.498c2.579 0 4.613.69 6.105 2.067 1.491 1.378 2.237 3.267 2.237 5.668v11.451h-3.337v-2.578h-.151c-1.441 2.123-3.363 3.185-5.764 3.185-2.047 0-3.76-.607-5.137-1.82-1.378-1.213-2.067-2.73-2.067-4.55 0-1.92.727-3.45 2.18-4.588 1.454-1.138 3.394-1.706 5.82-1.706 2.073 0 3.78.379 5.12 1.137V23.9c0-1.214-.481-2.243-1.442-3.09-.96-.847-2.085-1.27-3.374-1.27-1.947 0-3.489.821-4.626 2.464l-3.071-1.934c1.693-2.427 4.196-3.64 7.507-3.64"/><g transform="translate(4 6.074)"><mask id="b" fill="#fff"><use xlink:href="#a"/></mask><path fill="#FFC107" d="M31.672 13.055h-1.288v-.067H15.992v6.397h9.037c-1.318 3.724-4.861 6.397-9.037 6.397-5.3 0-9.595-4.297-9.595-9.595 0-5.3 4.296-9.595 9.595-9.595 2.445 0 4.67.922 6.365 2.43l4.523-4.524C24.024 1.837 20.204.195 15.992.195 7.16.195 0 7.355 0 16.187c0 8.831 7.16 15.991 15.992 15.991 8.83 0 15.991-7.16 15.991-15.991 0-1.073-.11-2.12-.31-3.132" mask="url(#b)"/></g><g transform="translate(5.617 6.074)"><mask id="d" fill="#fff"><use xlink:href="#c"/></mask><path fill="#FF3D00" d="M.227 8.743l5.254 3.853a9.588 9.588 0 018.894-6.004c2.445 0 4.67.922 6.365 2.43l4.523-4.524C22.407 1.837 18.587.195 14.375.195 8.232.195 2.905 3.663.227 8.743" mask="url(#d)"/></g><path fill="#4CAF50" d="M19.992 38.253c4.13 0 7.883-1.581 10.721-4.152l-4.95-4.188a9.519 9.519 0 01-5.771 1.943c-4.16 0-7.692-2.652-9.022-6.354L5.755 29.52c2.647 5.179 8.021 8.733 14.237 8.733"/><path fill="#1976D2" d="M35.672 19.129h-1.288v-.066H19.992v6.396h9.037a9.623 9.623 0 01-3.268 4.455c.001 0 .002 0 .003-.002l4.95 4.188c-.351.318 5.27-3.843 5.27-11.84 0-1.071-.111-2.118-.312-3.131"/><path fill="#5F6267" d="M100.269 17.036l-11.64 26.769h-3.602l4.322-9.365-7.659-17.404h3.792l5.536 13.346h.075l5.385-13.346z"/></g></svg>