<svg xmlns="http://www.w3.org/2000/svg" xmlns:xlink="http://www.w3.org/1999/xlink" width="50" height="50"><defs><path id="a" d="M0 0h50v50H0z"/><path id="c" d="M0 .079h17.547v27.304H0z"/><path id="e" d="M.055.034h2.402v4.461H.055z"/></defs><g fill="none" fill-rule="evenodd"><mask id="b" fill="#fff"><use xlink:href="#a"/></mask><g mask="url(#b)"><path fill="#047029" d="M30.506 12.762l7.523 22.863a2.568 2.568 0 002.44 1.765h6.482l-8.466-25.544a2.57 2.57 0 00-.562-.946l-7.417 1.862zm-17.786-.23l7.364 22.935c.347 1.053 1.49 1.694 2.599 1.694h3.48a2.168 2.168 0 002.058-2.85L20.7 11.616a2.575 2.575 0 00-.562-.946l-7.418 1.862z"/><g transform="translate(3 10.007)"><mask id="d" fill="#fff"><use xlink:href="#c"/></mask><path fill="#38B106" d="M0 27.383h6.482c1.11 0 2.093-.712 2.44-1.765l7.523-22.863s.315-1.26 1.102-1.574c0 0-.097-.486-.826-.847A2.606 2.606 0 0015.575.08h-4.672a2.57 2.57 0 00-2.438 1.76L0 27.383z" mask="url(#d)"/></g><path fill="#38B106" d="M21.743 37.39h5.375c1.11 0 2.093-.712 2.44-1.765l7.522-22.863s.315-1.26 1.102-1.574c0 0-.099-.493-.843-.855a2.52 2.52 0 00-1.104-.247h-4.697a2.57 2.57 0 00-2.438 1.76l-7.104 21.437-1.013 3.057a.8.8 0 00.759 1.05"/><g transform="translate(20.03 32.915)"><mask id="f" fill="#fff"><use xlink:href="#e"/></mask><path fill="#38B106" d="M2.078.034C1.112 2.847.055 2.552.055 2.552s.2 1.943 1.644 1.943c1.445 0 .38-4.46.38-4.46" mask="url(#f)"/></g></g></g></svg>