<svg xmlns="http://www.w3.org/2000/svg" width="96" height="50"><g fill="none"><path fill="#0068AF" d="M41.761 36.804h-6.73l4.207-26.333h6.73zM29.366 10.47l-6.417 18.114-.758-3.903-2.265-11.838s-.274-2.372-3.193-2.372H6.125L6 10.929a24.913 24.913 0 017.04 3.01l5.848 22.865h7.002l10.708-26.327-7.232-.006zm52.947 26.334h6.18l-5.388-26.327h-5.412c-2.5 0-3.108 1.964-3.108 1.964L64.539 36.81h7.002l1.427-3.919h8.554l.791 3.912zm-7.409-9.317l3.544-9.852 1.99 9.852h-5.534zm-9.832-10.673l.962-5.656A19.144 19.144 0 0059.979 10c-3.348 0-11.262 1.487-11.262 8.716 0 6.814 9.311 6.888 9.311 10.46 0 3.57-8.35 2.936-11.104.68l-1.017 5.913s3.008 1.487 7.61 1.487c4.603 0 11.522-2.422 11.522-9.016 0-6.845-9.394-7.483-9.394-10.46 0-2.976 6.547-2.592 9.427-.966z"/><path fill="#F7A541" d="M22.191 24.684l-2.265-11.84s-.274-2.374-3.193-2.374H6.125L6 10.929a25.947 25.947 0 019.99 5.095 20.529 20.529 0 016.201 8.66z"/></g></svg>