<svg xmlns="http://www.w3.org/2000/svg" width="50" height="50"><path fill="#ED1C24" d="M33.06 4c1.316-.011 3.195.23 5.008.904 2.442.91 4.4 2.46 5.796 4.728 1.76 2.861 2.41 5.989 2.032 9.35-.264 2.348-.988 4.55-1.999 6.66-1.408 2.94-3.27 5.549-5.39 7.972a47.965 47.965 0 01-7.737 7.077c-1.954 1.436-4 2.719-6.198 3.725-1.723.79-3.488 1.442-5.393 1.565-1.042.067-2.066-.024-3.014-.543-1.243-.682-1.904-1.783-2.106-3.187-.226-1.577.081-3.09.647-4.547.858-2.212 2.148-4.109 3.994-5.565 1.062-.838 2.235-1.423 3.607-1.446.986-.016 1.884.273 2.623.964.568.531.685 1.202.415 1.95-.259.718-.666 1.344-1.153 1.907-.844.979-1.714 1.936-2.583 2.892-.91 1-1.838 1.983-2.551 3.152-.317.52-.585 1.066-.618 1.692-.013.249.019.508.078.75.093.38.367.594.728.678.486.114.964.023 1.433-.11 1.083-.304 2.088-.801 3.066-1.36 2.704-1.545 5.154-3.455 7.46-5.568 2.036-1.865 3.912-3.885 5.54-6.143 1.057-1.465 1.986-3.009 2.668-4.699.639-1.58 1.031-3.216.91-4.946-.094-1.32-.482-2.543-1.229-3.623-.886-1.283-2.15-1.738-3.626-1.68-1.578.062-3.035.599-4.46 1.244-2.156.977-4.166 2.223-6.11 3.58-2.466 1.72-4.901 3.487-7.356 5.224-1.501 1.063-3.026 2.09-4.654 2.942-.997.52-2.026.948-3.132 1.175-1.499.308-2.81-.08-3.984-1.046-1.417-1.166-1.906-2.725-1.742-4.536.152-1.678.775-3.194 1.579-4.637 1.266-2.274 2.906-4.236 4.731-6.043 1.997-1.977 4.192-3.69 6.544-5.187 2.848-1.812 5.86-3.257 9.082-4.21 2.12-.628 4.28-1.017 7.094-1.055" fill-rule="evenodd"/></svg>