<svg xmlns="http://www.w3.org/2000/svg" xmlns:xlink="http://www.w3.org/1999/xlink" width="66" height="50"><defs><path id="a" d="M0 .205h52.608v39.574H0z"/></defs><g transform="translate(7 5)" fill="none" fill-rule="evenodd"><mask id="b" fill="#fff"><use xlink:href="#a"/></mask><path fill="#2373B9" d="M50.725 15.87a1.873 1.873 0 00-1.912-1.838c-1.026.02-1.867.897-1.84 1.92.026 1.017.934 1.892 1.92 1.853a1.894 1.894 0 001.832-1.934M41.69 4.69c-.087.844-.168 1.61-.244 2.377-.623 6.292-1.244 12.583-1.868 18.874-.25 2.524-.526 5.045-.74 7.572-.03.34-.433.985.322 1.046.587.048 1.207-.103 1.38-.83.103-.427.173-.866.219-1.304.877-8.334 1.747-16.668 2.62-25.002.152-1.462-.149-1.979-1.69-2.733m-19.57-3.48c-2.07-.524-2.812-.191-3.826 1.69C12.869 12.961 7.44 23.02 2.019 33.081c-.846 1.57-.557 2.822.798 3.587 1.334.754 2.338.447 3.078-.984 1.554-3.003 3.086-6.017 4.63-9.024 2.182-4.25 4.365-8.5 6.55-12.748.082-.159.18-.309.304-.518.286.327.163.662.164.956.01 5.706.001 11.412.012 17.117.002 1.38.569 2.165 1.79 2.598 1.221.433 2.108.164 2.99-.962.383-.49.8-.948 1.092-1.517 1.824-3.565 3.674-7.118 5.52-10.673.197-.38.416-.748.825-1.1v3.338c0 2.209-.003 4.417.001 6.626.003 1.893 1.079 3.146 2.665 3.114 1.576-.033 2.598-1.229 2.599-3.065.003-6.663.003-13.326 0-19.989 0-1.65-.636-2.57-1.982-2.907-1.254-.314-2.383.272-3.13 1.68-1.977 3.736-3.938 7.48-5.905 11.22l-1.983 3.766c-.028-.368-.072-.486-.04-.577 1.106-3.142.713-6.402.755-9.625.034-2.65.021-5.301-.004-7.951-.006-.653.135-.945.876-1.065 5.007-.811 10.002-1.694 15.003-2.544.397-.067.806-.08 1.21-.084 1.39-.014 1.772.311 1.812 1.724.017.618.17.875.803.779.252-.039.514-.007.772-.007 2.344.002 3.018.739 2.822 3.101-.137 1.649-.223 3.305-.445 4.942-.142 1.042.36 1.125 1.12.98 1.153-.22 2.258-.64 3.44-.764 1.263-.133 1.86.197 2.215 1.408.715 2.436-.248 4.631-2.535 5.681-1.377.632-2.842.997-4.335 1.23-.639.1-.908.375-.97 1.06-.35 3.882-.755 7.758-1.146 11.636-.033.33-.093.656-.15.982-.473 2.678-.716 2.917-3.41 2.864-.84-.017-1.375.133-1.591 1.031-.206.857-.891 1.227-1.714 1.331-.437.056-.882.051-1.323.051-10.898-.01-21.795-.021-32.693-.034-1.932-.002-2.507-.57-2.507-2.49-.003-8.834-.002-17.67 0-26.504 0-1.728.771-2.679 2.48-2.949 3.957-.626 7.916-1.24 11.882-1.807.936-.134 1.627-.387 2.034-1.345.428-1.01 1.037-1.943 1.57-2.909.981-1.784 2.724-2.041 4.266-.63-.04.032-.077.066-.115.1" mask="url(#b)"/><path fill="#2473B9" d="M48.867 17.001c-.599-.101-1.016-.387-1.041-1.045-.025-.66.378-1.063.965-1.1.653-.04 1.11.357 1.103 1.063-.006.64-.422.96-1.027 1.082"/></g></svg>