<svg xmlns="http://www.w3.org/2000/svg" xmlns:xlink="http://www.w3.org/1999/xlink" width="132" height="50"><defs><path id="a" d="M.101.359h32.456v31.493H.101z"/></defs><g fill="none" fill-rule="evenodd"><path fill="#1E388C" d="M13.83 19.7h3.232a1.33 1.33 0 011.323 1.327v3.896c0 .729-.597 1.328-1.323 1.328h-3.233V19.7zm-7.72-6.41c.003-.83.562-1.246 1.248-1.246h12.145c3.728.424 6.33 2.322 6.582 7.311v6.746c0 1.004-.055 1.844-.346 2.819-.966 3.248-3.288 4.862-6.757 5.088h-5.209v8.261c0 .62-.52.928-1.15.928h-5.47c-.667 0-1.156-.371-1.152-1.116l.11-28.79zM36.75 29.4h2.592c.61 0 1.11.503 1.11 1.114v4.513c0 .612-.5 1.113-1.11 1.113H36.75c-.61 0-1.109-.5-1.109-1.113v-4.513c0-.61.499-1.114 1.109-1.114m-4.678-17.319h8.488c4.969.29 7.658 2.9 7.586 8.309v20.033c0 1.55-1.566 2.727-2.908 2.727H34.111c-3.375 0-5.606-2.629-6.163-5.21-.532-2.477-.134-5.475-.134-8.005 0-3.905 2.589-7.777 6.898-7.777h4.53c1.318-.07 1.258-2.95 0-2.848h-7.078c-.717 0-1.223-.382-1.29-1.113v-5.246c0-.668.555-.87 1.198-.87m18.68 1.412v12.654c.309 3.968 3.867 6.939 7.743 6.939h3.583c1.482 0 1.39 2.488 0 2.488h-7.752c-.84 0-1.146.44-1.146 1.18v5.57c0 .561.453.984 1.048.984h7.182c5.99 0 9.404-2.875 9.402-9.315V13.002c0-.684-.434-.953-.85-.953H63.94c-.556 0-.88.606-.88 1.049V24.6c0 .491-.275.782-.718.782h-2.85c-.655 0-1.015-.353-1.015-.981V13.297c0-.738-.295-1.277-1.11-1.277h-5.79c-.66 0-.825.65-.825 1.473"/><path fill="#00ADEE" d="M73.838 18.693v-5.47c0-.588.481-1.068 1.069-1.068h1.317c3.39-.706 4.2-2.698 6.274-4.933 1.274-1.382 2.394-1.746 3.217-.282v5.215h3.111c.588 0 1.066.48 1.066 1.068v5.47c0 .586-.48 1.07-1.066 1.07h-3.111v22.419c0 .587-.481 1.068-1.069 1.068h-5.472a1.07 1.07 0 01-1.066-1.068V19.764h-3.201c-.583 0-1.069-.48-1.069-1.07"/><g transform="translate(92.461 11.299)"><mask id="b" fill="#fff"><use xlink:href="#a"/></mask><path fill="#00ADEE" d="M20.138 30.526c0 .729-.606 1.326-1.337 1.326h-5.125a1.334 1.334 0 01-1.337-1.326V9.948c.04-2.224-4.441-2.568-4.441 0v20.578c0 .729-.602 1.326-1.337 1.326H1.44c-.736 0-1.34-.597-1.34-1.326V1.995C.1 1.26.705.665 1.44.665h5.12c.736 0 1.338.595 1.338 1.33v.393c2.997-2.865 8.19-2.414 10.95.566 5.2-5.964 14.107-.65 13.696 5.89 0 7.229-.065 14.39-.065 21.682 0 .729-.603 1.326-1.334 1.326h-5.126a1.336 1.336 0 01-1.337-1.326V10.082c-.292-2.854-4.602-2.186-4.595 0 0 6.796.051 13.589.051 20.444" mask="url(#b)"/></g></g></svg>