<svg xmlns="http://www.w3.org/2000/svg" xmlns:xlink="http://www.w3.org/1999/xlink" width="50" height="50"><defs><path id="a" d="M0 .021h41.919v41.912H0z"/></defs><g transform="translate(4 4)" fill="none" fill-rule="evenodd"><mask id="b" fill="#fff"><use xlink:href="#a"/></mask><path fill="#60269F" d="M21.675 14.12h-9.959c-.156 0-.313-.006-.468.002-.486.027-.644.17-.667.64-.018.378-.018.759 0 1.137.039.827.615 1.416 1.441 1.468.378.024.758.006 1.136.011.548.009.557.01.558.557.005 1.627-.002 3.254.004 4.88.003.782.06 1.559.226 2.325.537 2.475 2.126 4.06 4.565 4.446 1.24.196 2.49.134 3.708-.225.129-.038.258-.074.381-.124.317-.129.397.027.39.307-.005.156 0 .312 0 .468 0 .958-.02 1.917.009 2.875.03 1.068.76 1.782 1.825 1.829.334.015.67-.011 1.003.007 1.158.063 1.375-.198 1.37-1.38-.024-5.125-.01-10.252-.01-15.378 0-.686-.073-.686.697-.683.535.002 1.07.004 1.605 0 .86-.008.988-.142.993-1.026.002-.223.01-.446-.002-.668-.055-.968-.664-1.57-1.625-1.59-.69-.014-1.383-.031-2.072.007-.47.026-.777-.14-1.08-.492-1.95-2.262-3.927-4.5-5.879-6.76-.742-.86-1.637-1.103-2.702-.792-.62.18-1.237.371-1.85.575-.708.236-.791.585-.277 1.102.11.11.225.216.338.323 1.955 1.858 3.91 3.715 5.863 5.575.157.15.35.272.479.584M20.983.02C33.21.117 42.048 10.112 41.918 21.228c-.135 11.536-9.586 20.859-21.22 20.704C8.644 41.771-.137 31.853.001 20.775.145 9.182 9.545.03 20.983.02" mask="url(#b)"/><path fill="#FFF" d="M22.99 21.099c0-1.18.005-2.359-.001-3.538-.003-.51-.012-.52-.515-.523a476.792 476.792 0 00-4.143 0c-.498.002-.508.012-.509.52-.003 1.725.003 3.45 0 5.176 0 .353.057.698.146 1.035.23.875.773 1.462 1.695 1.662.959.208 1.904.124 2.833-.162.49-.15.492-.162.493-.698.004-1.157.001-2.315.001-3.472zm-1.315-7.256c-.129-.306-.322-.425-.48-.573a6102.087 6102.087 0 00-5.862-5.465c-.113-.105-.228-.209-.338-.317-.514-.507-.43-.85.278-1.08.612-.2 1.229-.387 1.849-.564 1.065-.304 1.96-.066 2.702.777 1.952 2.215 3.93 4.409 5.879 6.627.303.345.61.508 1.08.482.689-.037 1.382-.02 2.072-.006.961.02 1.57.61 1.625 1.558.012.218.004.437.002.655-.005.867-.133.998-.993 1.006-.535.004-1.07.002-1.605 0-.77-.002-.697-.003-.697.67 0 5.025-.014 10.051.01 15.077.005 1.158-.212 1.414-1.37 1.352-.334-.018-.67.008-1.003-.007-1.064-.046-1.795-.746-1.825-1.793-.028-.939-.008-1.879-.01-2.819 0-.152-.004-.306 0-.458.008-.274-.072-.428-.389-.301-.123.049-.252.084-.38.121a8.559 8.559 0 01-3.709.221c-2.44-.378-4.028-1.932-4.565-4.36-.166-.75-.223-1.512-.226-2.278-.006-1.595 0-3.19-.004-4.785-.001-.535-.01-.537-.558-.545-.378-.006-.758.012-1.136-.012-.826-.05-1.402-.628-1.441-1.439-.018-.37-.018-.743 0-1.114.023-.462.181-.601.667-.628.155-.008.312-.002.468-.002h9.959z"/><path fill="#6128A0" d="M22.99 21.099c0 1.157.003 2.315 0 3.472-.002.536-.004.547-.494.698-.929.286-1.874.37-2.833.162-.922-.2-1.464-.787-1.695-1.662a4.004 4.004 0 01-.146-1.035c.003-1.726-.003-3.45 0-5.176.001-.508.01-.518.509-.52 1.38-.006 2.762-.006 4.143 0 .503.002.512.013.515.523.006 1.18.001 2.359.001 3.538"/></g></svg>