<svg xmlns="http://www.w3.org/2000/svg" width="126" height="50"><g fill="none"><path fill="#2B2E86" d="M70.523 15.942C71.055 11.75 67.851 10 63.853 10H53.347l-6.2 22.549h6.675l1.878-6.952 5.319.031s8.235.35 9.504-9.686zm-6.864 2.24a3.145 3.145 0 01-3.26 2.133h-3.27l1.289-4.789h3.437c1.67.009 2.28 1.335 1.804 2.655zm-31.273-2.016h6.09l-2.507 9.624s-.627 2.149 1.388 2.314c1.588.13 2.772-1.762 3.159-3.045.51-1.682 2.49-8.893 2.49-8.893h6.26l-4.76 16.383h-5.478l.671-2.345s-2.794 3.415-6.946 2.996c-3.7-.361-4.007-3.033-3.366-6.362.313-1.637 2.999-10.672 2.999-10.672z"/><path fill="#2B2E86" d="M85.334 24.47c.803-2.726 1.816-5.307 1-6.736-1.25-2.19-3.51-2.381-6.813-2.381-3.651 0-8.161.691-9.63 5.534h6.079s.554-1.824 2.845-1.707c2.02.1 1.91 1.485 1.164 2.254-1.303 1.343-4.909.597-8.901 1.992-3.489 1.206-4.71 5.782-3.953 7.609.734 1.77 2.103 1.992 3.947 2.177 2.965.284 5.236-1.358 6.295-2.325 0 1.073.028 1.673.028 1.673h6.397l-.017-.6s-.569-.151-.506-.95c.04-.595 1.132-3.41 2.065-6.54zm-9.185 4.74c-1.045.265-2.308.408-2.561-.537-.689-2.59 5.392-3.35 5.392-3.35.032 2.363-2.043 3.686-2.831 3.888zM30.872 15.25c.532-4.19-3.167-5.25-7.165-5.25H13.2L7 32.549h6.676l2.083-7.655 3.745.028s1.545-.088 1.576 1.36c.034 1.546-1.138 4.38-1.07 6.261h6.858v-.6s-.569-.151-.506-.95c.025-.33.392-1.384.873-2.804a8.622 8.622 0 00.689-3.315c-.066-1.5-1.005-2.202-2.382-2.692 4.266-.999 5.33-6.932 5.33-6.932zm-7.083 2.88c-.853 1.992-3.537 1.767-3.537 1.767l-3.13-.014 1.138-4.223h4.155c1.477.008 1.943 1.17 1.374 2.47zm64.442-1.964h6.201v9.83l5.367-9.83h5.691L94.014 36.04s-1.065 1.665-2.388 2.547c-1.084.726-2.419.695-2.826.723-2.276-.02-5.002-.026-5.002-.026l1.32-4.738h2.129s.976-.1 1.354-.569c.368-.445.56-1.01.54-1.588.007-1.021-.91-16.223-.91-16.223z"/><path fill="#197F49" d="M113.444 12.382l-7.16 24.848 13.403-12.424z"/><path fill="#ED722D" d="M108.854 12.382l-7.16 24.848 13.403-12.424z"/></g></svg>